<?xml version="1.0" encoding="UTF-8"?>
<svg width="28px" height="28px" viewBox="0 0 28 28" version="1.1" xmlns="http://www.w3.org/2000/svg" xmlns:xlink="http://www.w3.org/1999/xlink">
    <title>编组 25</title>
    <g id="项目协同" stroke="none" stroke-width="1" fill="#8C8C8C" fill-rule="evenodd">
      <rect id="BG-Color" fill-opacity="0.1" x="0" y="0" width="28" height="28" rx="14"></rect>
      <path d="M14,6 C9.58214286,6 6,9.58214286 6,14 C6,18.4178571 9.58214286,22 14,22 C18.4178571,22 22,18.4178571 22,14 C22,9.58214286 18.4178571,6 14,6 Z M16.9535714,17.0392857 L15.775,17.0339286 L14,14.9178571 L12.2267857,17.0321429 L11.0464286,17.0375 C10.9678571,17.0375 10.9035714,16.975 10.9035714,16.8946429 C10.9035714,16.8607143 10.9160714,16.8285714 10.9375,16.8017857 L13.2607143,14.0339286 L10.9375,11.2678571 C10.9160714,11.2410714 10.9035714,11.2089286 10.9035714,11.175 C10.9035714,11.0964286 10.9678571,11.0321429 11.0464286,11.0321429 L12.2267857,11.0375 L14,13.1535714 L15.7732143,11.0392857 L16.9517857,11.0339286 C17.0303571,11.0339286 17.0946429,11.0964286 17.0946429,11.1767857 C17.0946429,11.2107143 17.0821429,11.2428571 17.0607143,11.2696429 L14.7410714,14.0357143 L17.0625,16.8035714 C17.0839286,16.8303571 17.0964286,16.8625 17.0964286,16.8964286 C17.0964286,16.975 17.0321429,17.0392857 16.9535714,17.0392857 Z" id="形状" fill-rule="nonzero"></path>
    </g>
</svg>
