<?xml version="1.0" encoding="UTF-8"?>
<svg width="28px" height="28px" viewBox="0 0 28 28" version="1.1" xmlns="http://www.w3.org/2000/svg" xmlns:xlink="http://www.w3.org/1999/xlink">
    <title>编组 26</title>
    <defs>
        <linearGradient x1="50%" y1="0%" x2="50%" y2="100%" id="linearGradient-1">
            <stop stop-color="#F88C6F" offset="0%"></stop>
            <stop stop-color="#F35D5D" offset="100%"></stop>
        </linearGradient>
    </defs>
    <g id="页面-1" stroke="none" stroke-width="1" fill="none" fill-rule="evenodd">
      <g id="编组-25" fill="#FFEAEA">
        <rect id="BG-Color" x="0" y="0" width="28" height="28" rx="14"></rect>
      </g>
      <g id="frown-fill" transform="translate(5.833333, 5.833333)" fill="url(#linearGradient-1)" fill-rule="nonzero">
        <path d="M8.16666667,0 C3.65677083,0 0,3.65677083 0,8.16666667 C0,12.6765625 3.65677083,16.3333333 8.16666667,16.3333333 C12.6765625,16.3333333 16.3333333,12.6765625 16.3333333,8.16666667 C16.3333333,3.65677083 12.6765625,0 8.16666667,0 Z M4.08333333,6.5078125 C4.08333333,6.02473958 4.47526042,5.6328125 4.95833333,5.6328125 C5.44140625,5.6328125 5.83333333,6.02473958 5.83333333,6.5078125 C5.83333333,6.99088542 5.44140625,7.3828125 4.95833333,7.3828125 C4.47526042,7.3828125 4.08333333,6.99088542 4.08333333,6.5078125 Z M10.9375,11.4661458 L10.0606771,11.4661458 C9.98411458,11.4661458 9.91848958,11.4078125 9.91302083,11.33125 C9.84375,10.4289063 9.08723958,9.71614583 8.16666667,9.71614583 C7.24609375,9.71614583 6.48776042,10.4289063 6.4203125,11.33125 C6.41484375,11.4078125 6.34921875,11.4661458 6.27265625,11.4661458 L5.39583333,11.4661458 C5.31197917,11.4661458 5.24635417,11.396875 5.25,11.3130208 C5.33020833,9.77630208 6.60807292,8.54947917 8.16666667,8.54947917 C9.72526042,8.54947917 11.003125,9.77630208 11.0833333,11.3130208 C11.0869792,11.396875 11.0213542,11.4661458 10.9375,11.4661458 Z M11.375,7.3828125 C10.8919271,7.3828125 10.5,6.99088542 10.5,6.5078125 C10.5,6.02473958 10.8919271,5.6328125 11.375,5.6328125 C11.8580729,5.6328125 12.25,6.02473958 12.25,6.5078125 C12.25,6.99088542 11.8580729,7.3828125 11.375,7.3828125 Z" id="形状"></path>
      </g>
    </g>
</svg>
