<?xml version="1.0" encoding="UTF-8"?>
<svg width="28px" height="28px" viewBox="0 0 28 28" version="1.1" xmlns="http://www.w3.org/2000/svg" xmlns:xlink="http://www.w3.org/1999/xlink">
    <title>编组 25</title>
    <defs>
        <linearGradient x1="24.7838959%" y1="-35.5001857%" x2="72.1927742%" y2="110.180157%" id="linearGradient-1">
            <stop stop-color="#6EA4FD" offset="0%"></stop>
            <stop stop-color="#547DF9" offset="100%"></stop>
        </linearGradient>
        <path d="M14.7002074,7 C18.9528889,7 22.4,10.4471111 22.4,14.7002074 C22.4,18.9524741 18.9528889,22.4 14.7002074,22.4 C10.4475259,22.4 7,18.9528889 7,14.7002074 C7,10.4475259 10.4475259,7 14.7006222,7 L14.7002074,7 Z M14.7939556,10.2894815 L14.7607704,10.3363556 L12.1432889,14.2862222 C11.8446222,14.7367111 12.147437,15.3332148 12.6730074,15.3709629 L12.7265185,15.373037 L15.2361481,15.373037 L13.3080889,18.3041185 C13.1080763,18.6085017 13.1748092,19.0153919 13.4615704,19.2399407 L13.5080296,19.2735407 C13.8149926,19.4755556 14.2219259,19.4046222 14.4442667,19.1200593 L14.4774518,19.0736 L17.1194074,15.0577778 C17.4155852,14.6072889 17.1123556,14.0124444 16.5876148,13.9751111 L16.5345185,13.973037 L14.0298667,13.973037 L15.9276444,11.1095704 C16.1304889,10.803437 16.0608,10.3960889 15.7770667,10.1729185 L15.7306074,10.1397333 C15.4269785,9.93836758 15.0196672,10.0034869 14.7939556,10.2894815 L14.7939556,10.2894815 Z" id="path-2"></path>
        <filter x="-97.4%" y="-45.5%" width="229.9%" height="194.8%" filterUnits="objectBoundingBox" id="filter-3">
            <feMorphology radius="4" operator="erode" in="SourceAlpha" result="shadowSpreadOuter1"></feMorphology>
            <feOffset dx="0" dy="8" in="shadowSpreadOuter1" result="shadowOffsetOuter1"></feOffset>
            <feGaussianBlur stdDeviation="5" in="shadowOffsetOuter1" result="shadowBlurOuter1"></feGaussianBlur>
            <feColorMatrix values="0 0 0 0 0.141176471   0 0 0 0 0.843137255   0 0 0 0 0.542165433  0 0 0 0.502731643 0" type="matrix" in="shadowBlurOuter1"></feColorMatrix>
        </filter>
    </defs>
    <g id="页面-1" stroke="none" stroke-width="1" fill="none" fill-rule="evenodd">
      <rect id="BG-Color" fill="#F0F7FF" x="0" y="0" width="28" height="28" rx="14"></rect>
      <g id="形状">
        <use fill="black" fill-opacity="1" filter="url(#filter-3)" xlink:href="#path-2"></use>
        <use fill="url(#linearGradient-1)" fill-rule="evenodd" xlink:href="#path-2"></use>
      </g>
      <path d="M9.51533892,5.68417434 C9.85486677,5.52408671 10.274665,5.6374404 10.4594808,5.93911104 C10.6442967,6.24078169 10.5261168,6.61975274 10.19369,6.79143114 C8.86405731,7.44825681 7.73078595,8.38363348 6.89024835,9.51801749 C6.75093435,9.70602629 6.51047425,9.81303192 6.25944705,9.79872639 C6.00841985,9.78442085 5.78496255,9.65097751 5.67324935,9.44866318 C5.56153616,9.24634885 5.57853895,9.00589988 5.71785296,8.81789108 C6.68413792,7.51405343 7.98689885,6.43900437 9.51533892,5.68417434 L9.51533892,5.68417434 Z M19.8906969,5.68417434 C19.6699042,5.57014826 19.3977189,5.57209349 19.1789765,5.6892608 C18.960234,5.80642812 18.8290618,6.02053746 18.8359824,6.24912205 C18.8429031,6.47770663 18.9868368,6.68510346 19.2123459,6.79143114 C20.5419785,7.44825681 21.6752499,8.38363348 22.5157875,9.51801749 C22.7336491,9.80265402 23.1656937,9.87756931 23.4859622,9.686243 C23.8062307,9.4949167 23.896095,9.10821654 23.6877562,8.81789108 C22.7215915,7.51409957 21.4189815,6.43905433 19.8906969,5.68417434 L19.8906969,5.68417434 Z" id="形状" fill-opacity="0.65" fill="#5B88FB" fill-rule="nonzero"></path>
    </g>
</svg>
