<?xml version="1.0" encoding="UTF-8"?>
<svg width="28px" height="28px" viewBox="0 0 28 28" version="1.1" xmlns="http://www.w3.org/2000/svg" xmlns:xlink="http://www.w3.org/1999/xlink">
    <title>编组 25</title>
    <defs>
        <linearGradient x1="50%" y1="0%" x2="50%" y2="100%" id="linearGradient-1">
            <stop stop-color="#FABE70" offset="0%"></stop>
            <stop stop-color="#F88F46" offset="100%"></stop>
        </linearGradient>
    </defs>
    <g id="页面-1" stroke="none" stroke-width="1" fill="none" fill-rule="evenodd">
        <g id="825需求管理" transform="translate(-7981.000000, -685.000000)">
            <g id="编组-25" transform="translate(7981.000000, 685.000000)">
                <rect id="BG-Color" fill="#FFECD5" x="0" y="0" width="28" height="28" rx="14"></rect>
                <path d="M14,5.83333333 C9.49010417,5.83333333 5.83333333,9.49010417 5.83333333,14 C5.83333333,18.5098958 9.49010417,22.1666667 14,22.1666667 C18.5098958,22.1666667 22.1666667,18.5098958 22.1666667,14 C22.1666667,9.49010417 18.5098958,5.83333333 14,5.83333333 Z M17.2174479,16.5101562 L16.6960937,17.2210937 C16.6486979,17.2867187 16.5575521,17.2994792 16.4919271,17.2520833 L13.4768229,15.0536458 C13.4385417,15.0263021 13.4166667,14.9825521 13.4166667,14.9351562 L13.4166667,9.91666667 C13.4166667,9.83645833 13.4822917,9.77083333 13.5625,9.77083333 L14.4393229,9.77083333 C14.5195312,9.77083333 14.5851563,9.83645833 14.5851563,9.91666667 L14.5851563,14.4283854 L17.1846354,16.3078125 C17.2502604,16.3533854 17.2648438,16.4445312 17.2174479,16.5101562 Z" id="形状" fill="url(#linearGradient-1)" fill-rule="nonzero"></path>
            </g>
        </g>
    </g>
</svg>