<?xml version="1.0" encoding="UTF-8"?>
<svg width="25px" height="25px" viewBox="0 0 25 25" version="1.1" xmlns="http://www.w3.org/2000/svg" xmlns:xlink="http://www.w3.org/1999/xlink">
    <title>morentouxiang</title>
    <defs>
        <linearGradient x1="50%" y1="-63.0577036%" x2="50%" y2="118.391564%" id="linearGradient-1">
            <stop stop-color="#90A0D2" stop-opacity="0" offset="0%"></stop>
            <stop stop-color="#90A0D2" offset="100%"></stop>
        </linearGradient>
        <linearGradient x1="50%" y1="140.695508%" x2="50%" y2="2.32544058%" id="linearGradient-2">
            <stop stop-color="#F1F5FF" stop-opacity="0.604166667" offset="0%"></stop>
            <stop stop-color="#FFFFFF" stop-opacity="0.916072237" offset="100%"></stop>
        </linearGradient>
        <linearGradient x1="50%" y1="137.741055%" x2="50%" y2="0.806915172%" id="linearGradient-3">
            <stop stop-color="#F1F5FF" stop-opacity="0.602524909" offset="0%"></stop>
            <stop stop-color="#FFFFFF" stop-opacity="0.920657835" offset="100%"></stop>
        </linearGradient>
    </defs>
    <g id="控件" stroke="none" stroke-width="1" fill="none" fill-rule="evenodd">
        <g id="Select-选择器-/-样式2-/-Selected-已选+头像" transform="translate(-12.000000, -8.000000)">
            <g id="编组-8" transform="translate(12.000000, 8.000000)">
                <g id="morentouxiang" transform="translate(0.015065, 0.018873)">
                    <path d="M11.999047,0.25 C13.5125701,0.25 14.9543432,0.543877024 16.2789534,1.07797614 C18.4978249,1.94463123 20.388163,3.46569566 21.7123101,5.40370303 C22.9982335,7.28576652 23.75,9.56116646 23.75,12.0124289 C23.75,15.2534589 22.4346881,18.1878798 20.308126,20.3120168 C18.1815768,22.4361411 15.243793,23.75 11.9987432,23.75 C8.75411088,23.75 5.81704139,22.4362231 3.69106213,20.3122234 C1.56492096,18.1880619 0.25,15.2535507 0.25,12.0124289 C0.25,9.5611035 1.00172988,7.28566028 2.28766648,5.40357741 C3.61177347,3.46562878 5.50207809,1.94461552 7.7236149,1.0769566 C9.04442209,0.544170826 10.4874142,0.25 11.999047,0.25 Z" id="形状" stroke="#ECF2FE" stroke-width="0.5" fill="url(#linearGradient-1)"></path>
                    <path d="M7.37947723,9.47574181 C7.37947723,11.4940788 8.41361898,13.2415454 9.91692707,14.0969006 C10.5403758,14.451659 11.2423592,14.6562467 11.9871146,14.6562467 C12.7057377,14.6562467 13.3832446,14.464877 13.9903572,14.1342916 C15.5291797,13.2952724 16.596656,11.5264475 16.596656,9.47607295 C16.596656,6.62122803 14.5293107,4.29747212 11.9871422,4.29747212 C9.44651895,4.29716856 7.37947723,6.62095205 7.37947723,9.47574181 L7.37947723,9.47574181 L7.37947723,9.47574181 Z" id="路径" fill="url(#linearGradient-2)"></path>
                    <path d="M20.7105677,19.0706378 C20.4686443,17.0821584 18.5310221,15.3893846 15.7887362,14.5450122 C14.7530216,15.4767221 13.4297694,16.0373375 11.9867835,16.0373375 C10.51176,16.0373375 9.16152013,15.446561 8.1157334,14.4743143 C5.4481742,15.2356817 3.49427105,16.7886604 3.03614262,18.6495416 C5.06827693,21.4100952 8.34355583,23.2021826 12.0358194,23.2021826 C15.538286,23.2021826 18.6627043,21.5914205 20.7105677,19.0706378 Z" id="路径" fill="url(#linearGradient-3)"></path>
                </g>
            </g>
        </g>
    </g>
</svg>