<?xml version="1.0" encoding="UTF-8"?>
<svg width="256px" height="216px" viewBox="0 0 256 216" version="1.1" xmlns="http://www.w3.org/2000/svg" xmlns:xlink="http://www.w3.org/1999/xlink">
    <title>编组 3</title>
    <defs>
        <rect id="path-1" x="0" y="0" width="256" height="216"></rect>
        <linearGradient x1="95.3903401%" y1="58.3667283%" x2="0%" y2="23.82468%" id="linearGradient-3">
            <stop stop-color="#FFFFFF" stop-opacity="0.2507273" offset="0%"></stop>
            <stop stop-color="#FFFFFF" stop-opacity="0.2507273" offset="2.09557637%"></stop>
            <stop stop-color="#DADCE2" stop-opacity="0.892841899" offset="100%"></stop>
        </linearGradient>
        <linearGradient x1="50%" y1="0%" x2="50%" y2="27.6170868%" id="linearGradient-4">
            <stop stop-color="#F4F5F6" offset="0%"></stop>
            <stop stop-color="#F4F5F6" stop-opacity="0" offset="100%"></stop>
        </linearGradient>
        <linearGradient x1="109.560091%" y1="50%" x2="13.57715%" y2="50%" id="linearGradient-5">
            <stop stop-color="#FFFFFF" stop-opacity="0.2507273" offset="0%"></stop>
            <stop stop-color="#DADCE2" stop-opacity="0.892841899" offset="100%"></stop>
        </linearGradient>
        <linearGradient x1="109.560091%" y1="50%" x2="13.57715%" y2="50%" id="linearGradient-6">
            <stop stop-color="#FFFFFF" stop-opacity="0.2507273" offset="0%"></stop>
            <stop stop-color="#DADCE2" stop-opacity="0.892841899" offset="100%"></stop>
        </linearGradient>
        <linearGradient x1="50%" y1="-127.707352%" x2="50%" y2="116.1799%" id="linearGradient-7">
            <stop stop-color="#FFFFFF" offset="0%"></stop>
            <stop stop-color="#B8C2D8" stop-opacity="0.892841899" offset="100%"></stop>
        </linearGradient>
        <linearGradient x1="50%" y1="-1.77635684e-13%" x2="50%" y2="100%" id="linearGradient-8">
            <stop stop-color="#F3F6FF" stop-opacity="0.2507273" offset="0%"></stop>
            <stop stop-color="#DEE2EC" stop-opacity="0.892841899" offset="100%"></stop>
        </linearGradient>
        <linearGradient x1="50%" y1="1.92461347%" x2="50%" y2="100%" id="linearGradient-9">
            <stop stop-color="#C6CDDD" stop-opacity="0.2507273" offset="0%"></stop>
            <stop stop-color="#B8C2D8" stop-opacity="0.892841899" offset="100%"></stop>
        </linearGradient>
        <linearGradient x1="50%" y1="1.92461347%" x2="50%" y2="100%" id="linearGradient-10">
            <stop stop-color="#C6CDDD" stop-opacity="0.2507273" offset="0%"></stop>
            <stop stop-color="#B8C2D8" stop-opacity="0.892841899" offset="100%"></stop>
        </linearGradient>
        <linearGradient x1="50%" y1="0.16671101%" x2="50%" y2="96.7763194%" id="linearGradient-11">
            <stop stop-color="#FFFFFF" stop-opacity="0.780725866" offset="0%"></stop>
            <stop stop-color="#FFFFFF" offset="100%"></stop>
        </linearGradient>
        <linearGradient x1="50%" y1="112.324211%" x2="50%" y2="-25.6270685%" id="linearGradient-12">
            <stop stop-color="#31FABB" offset="0%"></stop>
            <stop stop-color="#BBEBFF" stop-opacity="0.300093217" offset="100%"></stop>
        </linearGradient>
        <linearGradient x1="54.9634963%" y1="24.4773964%" x2="50%" y2="100%" id="linearGradient-13">
            <stop stop-color="#FFFFFF" stop-opacity="0" offset="0%"></stop>
            <stop stop-color="#FFFFFF" stop-opacity="0.594888754" offset="100%"></stop>
        </linearGradient>
        <linearGradient x1="50%" y1="0.16671101%" x2="50%" y2="96.7763194%" id="linearGradient-14">
            <stop stop-color="#FFFFFF" stop-opacity="0.780725866" offset="0%"></stop>
            <stop stop-color="#FFFFFF" offset="100%"></stop>
        </linearGradient>
    </defs>
    <g id="9/28更新" stroke="none" stroke-width="1" fill="none" fill-rule="evenodd">
        <g id="9/28未加入任何项目/空间" transform="translate(-795.000000, -457.000000)">
            <g id="编组-3" transform="translate(795.000000, 457.000000)">
                <mask id="mask-2" fill="white">
                    <use xlink:href="#path-1"></use>
                </mask>
                <g id="矩形"></g>
                <polygon id="矩形" fill="url(#linearGradient-3)" mask="url(#mask-2)" points="180.743727 126.394427 231.70568 155.963643 186 219.12621 72.8485374 156.447214"></polygon>
                <ellipse id="椭圆形" fill="url(#linearGradient-4)" mask="url(#mask-2)" cx="130.5" cy="183.5" rx="154" ry="90"></ellipse>
                <g id="编组" mask="url(#mask-2)">
                    <g transform="translate(25.500000, 30.000000)">
                        <g id="ErrorView_403" stroke-width="1" fill="none" transform="translate(11.344555, 115.517949)">
                            <rect id="矩形" fill="url(#linearGradient-5)" transform="translate(12.258330, 8.232051) rotate(30.000000) translate(-12.258330, -8.232051) " x="-0.741669751" y="6.23205081" width="26" height="4" rx="2"></rect>
                            <rect id="矩形" fill="url(#linearGradient-6)" transform="translate(183.454483, 48.232051) rotate(30.000000) translate(-183.454483, -48.232051) " x="166.454483" y="46.2320508" width="34" height="4" rx="2"></rect>
                        </g>
                        <g id="编组-17" stroke-width="1" fill="none" transform="translate(40.500000, 74.000000)">
                            <g id="编组-2">
                                <polygon id="矩形" fill="#97A2BB" opacity="0.7010129" points="0 0 124 0 120 18 4 18"></polygon>
                                <path d="M4,18 L120,18 L120,48 C120,51.3137085 117.313708,54 114,54 L10,54 C6.6862915,54 4,51.3137085 4,48 L4,18 L4,18 Z" id="矩形" fill="url(#linearGradient-7)"></path>
                            </g>
                            <g id="编组-13" transform="translate(37.254446, 24.739570)">
                                <g id="编组-11">
                                    <rect id="矩形" fill="url(#linearGradient-8)" transform="translate(38.744640, 23.312779) rotate(2.000000) translate(-38.744640, -23.312779) " x="0.744640354" y="1.31277907" width="76" height="44" rx="4"></rect>
                                    <rect id="矩形" fill="#F5F8FF" transform="translate(49.899062, 20.682031) rotate(2.000000) translate(-49.899062, -20.682031) " x="36.8990624" y="18.6820309" width="26" height="4" rx="2"></rect>
                                    <rect id="矩形" fill="#F5F8FF" transform="translate(49.584967, 29.676548) rotate(2.000000) translate(-49.584967, -29.676548) " x="36.5849669" y="27.6765483" width="26" height="4" rx="2"></rect>
                                    <circle id="椭圆形" fill="#F5F8FF" transform="translate(21.985918, 17.706063) rotate(2.000000) translate(-21.985918, -17.706063) " cx="21.9859182" cy="17.7060633" r="5"></circle>
                                    <path d="M21.5458933,34.9156851 C26.0458933,34.9156851 30.5458933,34.6701637 30.5807928,32.6989918 C30.5807928,27.7284291 26.5513555,23.6989918 21.5807928,23.6989918 C16.61023,23.6989918 12.5807928,27.7284291 12.5807928,32.6989918 C12.6491807,34.6573651 17.0458933,34.9156851 21.5458933,34.9156851 Z" id="椭圆形" fill="#F5F8FF" transform="translate(21.580793, 29.307338) rotate(2.000000) translate(-21.580793, -29.307338) "></path>
                                </g>
                                <g id="编组-6" transform="translate(37.762993, 24.369081) rotate(2.000000) translate(-37.762993, -24.369081) translate(12.762993, 13.260734)"></g>
                            </g>
                        </g>
                        <g id="编组-16" stroke-width="1" fill="none" transform="translate(0.000000, 76.000000)">
                            <path d="M12.7904222,0 C15.2551328,0 16.5212839,1.95442894 16.5212839,4.36533921 L16.5212839,27.4143302 L20.0914864,26.1614779 L20.0914864,20.9230708 C20.091485,19.0622128 21.2172289,17.5282077 23.1172331,17.4351648 L23.2957432,17.4307995 C25.1950626,17.433786 26.394608,18.8888076 26.4946447,20.7440919 L26.5,20.9230708 L26.5,27.0502609 L26.4955372,27.2632895 C26.3750429,30.4569716 24.700182,31.1815957 21.2009269,32.4266127 L16.5212839,33.8619362 L16.5212839,40.2691383 C16.5212839,42.3296363 14.8509202,44 12.7904222,44 C10.7299242,44 9.05956057,42.3296363 9.05956057,40.2691383 L9.05956057,26.9079509 L9.05956057,26.9079509 L6.38190868,26.1920352 C2.53143765,24.8780681 1.10893147,23.7055148 0.881119108,20.5022521 L0.869515947,20.2927158 L0.86594576,20.0805603 L0.5,13.9690855 C0.5,12.7214171 1.18047674,11.5685239 2.28510125,10.9446897 C3.38972577,10.3208555 4.01878779,10.3208555 5.12341231,10.9446897 C6.22803682,11.5685239 6.90851358,12.7214171 6.90851356,13.9690855 L7.27445932,20.6393238 L9.05956057,21.1762605 L9.05956057,4.36533921 C9.05969862,2.02820852 10.2097055,0.1057968 12.5967388,0.0043653375 L12.7904222,0 Z" id="形状" fill="url(#linearGradient-9)"></path>
                            <g id="编组-15" transform="translate(0.000000, 12.447214)" stroke="#D0D6E3" stroke-linecap="square">
                                <line x1="0" y1="0.0527864045" x2="1.78885438" y2="0.947213595" id="直线"></line>
                                <line x1="1" y1="1.0527864" x2="0.292893219" y2="1.75989319" id="直线-2"></line>
                            </g>
                            <g id="编组-15" transform="translate(8.000000, 4.447214)" stroke="#D0D6E3" stroke-linecap="square">
                                <line x1="0" y1="0.0527864045" x2="1.78885438" y2="0.947213595" id="直线"></line>
                                <line x1="1" y1="1.0527864" x2="0.292893219" y2="1.75989319" id="直线-2"></line>
                            </g>
                            <g id="编组-15" transform="translate(15.894427, 15.400383) scale(-1, 1) translate(-15.894427, -15.400383) translate(15.000000, 14.447214)" stroke="#D0D6E3" stroke-linecap="square">
                                <line x1="0" y1="0.0527864045" x2="1.78885438" y2="0.947213595" id="直线"></line>
                                <line x1="1" y1="1.0527864" x2="0.292893219" y2="1.75989319" id="直线-2"></line>
                            </g>
                            <g id="编组-15" transform="translate(19.000000, 21.447214)" stroke="#D0D6E3" stroke-linecap="square">
                                <line x1="0" y1="0.0527864045" x2="1.78885438" y2="0.947213595" id="直线"></line>
                                <line x1="1" y1="1.0527864" x2="0.292893219" y2="1.75989319" id="直线-2"></line>
                            </g>
                            <g id="编组-15" transform="translate(26.894427, 23.400383) scale(-1, 1) translate(-26.894427, -23.400383) translate(26.000000, 22.447214)" stroke="#D0D6E3" stroke-linecap="square">
                                <line x1="0" y1="0.0527864045" x2="1.78885438" y2="0.947213595" id="直线"></line>
                                <line x1="1" y1="1.0527864" x2="0.292893219" y2="1.75989319" id="直线-2"></line>
                            </g>
                            <g id="编组-15" transform="translate(16.894427, 39.400383) scale(-1, 1) translate(-16.894427, -39.400383) translate(16.000000, 38.447214)" stroke="#D0D6E3" stroke-linecap="square">
                                <line x1="0" y1="0.0527864045" x2="1.78885438" y2="0.947213595" id="直线"></line>
                                <line x1="1" y1="1.0527864" x2="0.292893219" y2="1.75989319" id="直线-2"></line>
                            </g>
                            <g id="编组-15" transform="translate(6.894427, 20.400383) scale(-1, 1) translate(-6.894427, -20.400383) translate(6.000000, 19.447214)" stroke="#D0D6E3" stroke-linecap="square">
                                <line x1="0" y1="0.0527864045" x2="1.78885438" y2="0.947213595" id="直线"></line>
                                <line x1="1" y1="1.0527864" x2="0.292893219" y2="1.75989319" id="直线-2"></line>
                            </g>
                            <g id="编组-15" transform="translate(8.000000, 31.447214)" stroke="#D0D6E3" stroke-linecap="square">
                                <line x1="0" y1="0.0527864045" x2="1.78885438" y2="0.947213595" id="直线"></line>
                                <line x1="1" y1="1.0527864" x2="0.292893219" y2="1.75989319" id="直线-2"></line>
                            </g>
                        </g>
                        <g id="编组-16" stroke-width="1" fill="none" transform="translate(166.500000, 114.000000)">
                            <path d="M12.7904222,0 C15.2551328,0 16.5212839,1.95442894 16.5212839,4.36533921 L16.5212839,27.4143302 L20.0914864,26.1614779 L20.0914864,20.9230708 C20.091485,19.0622128 21.2172289,17.5282077 23.1172331,17.4351648 L23.2957432,17.4307995 C25.1950626,17.433786 26.394608,18.8888076 26.4946447,20.7440919 L26.5,20.9230708 L26.5,27.0502609 L26.4955372,27.2632895 C26.3750429,30.4569716 24.700182,31.1815957 21.2009269,32.4266127 L16.5212839,33.8619362 L16.5212839,40.2691383 C16.5212839,42.3296363 14.8509202,44 12.7904222,44 C10.7299242,44 9.05956057,42.3296363 9.05956057,40.2691383 L9.05956057,26.9079509 L9.05956057,26.9079509 L6.38190868,26.1920352 C2.53143765,24.8780681 1.10893147,23.7055148 0.881119108,20.5022521 L0.869515947,20.2927158 L0.86594576,20.0805603 L0.5,13.9690855 C0.5,12.7214171 1.18047674,11.5685239 2.28510125,10.9446897 C3.38972577,10.3208555 4.01878779,10.3208555 5.12341231,10.9446897 C6.22803682,11.5685239 6.90851358,12.7214171 6.90851356,13.9690855 L7.27445932,20.6393238 L9.05956057,21.1762605 L9.05956057,4.36533921 C9.05969862,2.02820852 10.2097055,0.1057968 12.5967388,0.0043653375 L12.7904222,0 Z" id="形状" fill="url(#linearGradient-9)"></path>
                            <g id="编组-15" transform="translate(0.000000, 12.447214)" stroke="#D0D6E3" stroke-linecap="square">
                                <line x1="0" y1="0.0527864045" x2="1.78885438" y2="0.947213595" id="直线"></line>
                                <line x1="1" y1="1.0527864" x2="0.292893219" y2="1.75989319" id="直线-2"></line>
                            </g>
                            <g id="编组-15" transform="translate(8.000000, 4.447214)" stroke="#D0D6E3" stroke-linecap="square">
                                <line x1="0" y1="0.0527864045" x2="1.78885438" y2="0.947213595" id="直线"></line>
                                <line x1="1" y1="1.0527864" x2="0.292893219" y2="1.75989319" id="直线-2"></line>
                            </g>
                            <g id="编组-15" transform="translate(15.894427, 15.400383) scale(-1, 1) translate(-15.894427, -15.400383) translate(15.000000, 14.447214)" stroke="#D0D6E3" stroke-linecap="square">
                                <line x1="0" y1="0.0527864045" x2="1.78885438" y2="0.947213595" id="直线"></line>
                                <line x1="1" y1="1.0527864" x2="0.292893219" y2="1.75989319" id="直线-2"></line>
                            </g>
                            <g id="编组-15" transform="translate(19.000000, 21.447214)" stroke="#D0D6E3" stroke-linecap="square">
                                <line x1="0" y1="0.0527864045" x2="1.78885438" y2="0.947213595" id="直线"></line>
                                <line x1="1" y1="1.0527864" x2="0.292893219" y2="1.75989319" id="直线-2"></line>
                            </g>
                            <g id="编组-15" transform="translate(26.894427, 23.400383) scale(-1, 1) translate(-26.894427, -23.400383) translate(26.000000, 22.447214)" stroke="#D0D6E3" stroke-linecap="square">
                                <line x1="0" y1="0.0527864045" x2="1.78885438" y2="0.947213595" id="直线"></line>
                                <line x1="1" y1="1.0527864" x2="0.292893219" y2="1.75989319" id="直线-2"></line>
                            </g>
                            <g id="编组-15" transform="translate(16.894427, 39.400383) scale(-1, 1) translate(-16.894427, -39.400383) translate(16.000000, 38.447214)" stroke="#D0D6E3" stroke-linecap="square">
                                <line x1="0" y1="0.0527864045" x2="1.78885438" y2="0.947213595" id="直线"></line>
                                <line x1="1" y1="1.0527864" x2="0.292893219" y2="1.75989319" id="直线-2"></line>
                            </g>
                            <g id="编组-15" transform="translate(6.894427, 20.400383) scale(-1, 1) translate(-6.894427, -20.400383) translate(6.000000, 19.447214)" stroke="#D0D6E3" stroke-linecap="square">
                                <line x1="0" y1="0.0527864045" x2="1.78885438" y2="0.947213595" id="直线"></line>
                                <line x1="1" y1="1.0527864" x2="0.292893219" y2="1.75989319" id="直线-2"></line>
                            </g>
                            <g id="编组-15" transform="translate(8.000000, 31.447214)" stroke="#D0D6E3" stroke-linecap="square">
                                <line x1="0" y1="0.0527864045" x2="1.78885438" y2="0.947213595" id="直线"></line>
                                <line x1="1" y1="1.0527864" x2="0.292893219" y2="1.75989319" id="直线-2"></line>
                            </g>
                        </g>
                        <path d="M46.5,0 L158.5,0 C161.813708,-6.08718376e-16 164.5,2.6862915 164.5,6 L164.5,74 L164.5,74 L40.5,74 L40.5,6 C40.5,2.6862915 43.1862915,6.08718376e-16 46.5,0 Z" id="矩形" fill="url(#linearGradient-10)"></path>
                        <rect id="矩形" fill="url(#linearGradient-11)" x="56.5" y="6" width="42" height="8" rx="4"></rect>
                        <rect id="矩形" fill="url(#linearGradient-11)" x="106.5" y="6" width="42" height="8" rx="4"></rect>
                        <rect id="矩形" fill="#FFFFFF" x="56.5" y="20" width="92" height="44" rx="2"></rect>
                        <g id="quanxian" stroke-width="1" fill="none" transform="translate(93.500000, 32.000000)">
                            <path d="M9.00112486,0.25 C10.5890045,0.25 12.026506,0.893557682 13.0670366,1.93408828 C14.0463595,2.9134112 14.6740386,4.24437614 14.7444945,5.72139716 L14.7511249,6 L14.7511249,7.25112486 L16.3329584,7.25112486 C16.7240313,7.25112486 17.0782688,7.40988743 17.3347531,7.66637175 C17.5591769,7.89079552 17.7087825,8.1900616 17.7426772,8.52335978 L17.75,8.66816648 L17.75,18.3329584 C17.75,18.7240313 17.5912374,19.0782688 17.3347531,19.3347531 C17.1103293,19.5591769 16.8110633,19.7087825 16.4777651,19.7426772 L16.3329584,19.75 L1.66704162,19.75 C1.27596873,19.75 0.921731198,19.5912374 0.665246887,19.3347531 C0.440823114,19.1103293 0.291217546,18.8110633 0.257322775,18.4777651 L0.25,18.3329584 L0.25,8.66591676 C0.25,8.27484387 0.408762575,7.92060634 0.665246887,7.66412203 C0.889670659,7.43969825 1.18893674,7.29009269 1.52223492,7.25619792 L1.66704162,7.24887514 L3.25112486,7.24887514 L3.25112486,6 C3.25112486,4.41212036 3.89468254,2.97461888 4.93521314,1.93408828 C5.97574374,0.893557682 7.41324522,0.25 9.00112486,0.25 Z M8.99887514,1.75224972 C7.8250785,1.75224972 6.76247879,2.22748231 5.99338383,2.9961447 C5.22445197,3.76464409 4.74887514,4.82645747 4.74887514,6 L4.74887514,6 L4.74887514,7.24887514 L13.2488751,7.24887514 L13.2488751,6.00224972 L13.2425868,5.76905571 C13.1841474,4.68823713 12.7219253,3.71482857 12.0041108,2.99701408 C11.2350238,2.22792713 10.1725253,1.75224972 8.99887514,1.75224972 Z" id="形状" stroke="url(#linearGradient-13)" stroke-width="0.5" fill="url(#linearGradient-12)" fill-rule="nonzero"></path>
                            <path d="M9,10 C10.1045695,10 11,10.7843397 11,11.7518717 C11,12.5145261 10.4436389,13.1633569 9.66703788,13.4039435 L9.66666667,16 L8.33333333,16 L8.33296212,13.4039435 C7.55636112,13.1633569 7,12.5145261 7,11.7518717 C7,10.7843397 7.8954305,10 9,10 Z" id="形状结合" fill="url(#linearGradient-14)"></path>
                        </g>
                    </g>
                </g>
            </g>
        </g>
    </g>
</svg>