<?xml version="1.0" encoding="UTF-8"?>
<svg width="40px" height="40px" viewBox="0 0 40 40" version="1.1" xmlns="http://www.w3.org/2000/svg" xmlns:xlink="http://www.w3.org/1999/xlink">
    <title>logo </title>
    <defs>
        <polygon id="path-1" points="0 0 40 0 40 39.9985653 0 39.9985653"></polygon>
    </defs>
    <g id="logo" stroke="none" stroke-width="1" fill="none" fill-rule="evenodd">
        <g id="logo-">
            <path d="M21.5912753,13.6804656 C21.6876061,12.549795 21.2056278,11.9435921 20.1498811,11.8556943 C19.5102705,11.8608839 18.9618012,12.1148469 18.5047975,12.6104478 L14.1475316,17.8168518 L11.529734,12.6104478 C11.2618241,12.1236042 10.8113074,11.8725603 10.1652099,11.8556943 C9.1029763,11.9367809 8.42736332,12.5452542 8.15166911,13.6804656 C8.09101638,14.0884931 8.13026226,14.4566259 8.27005544,14.7991354 L11.7116922,21.4190399 L10.582319,28.0811094 C10.4499858,29.228646 10.9572631,29.817983 12.1025293,29.8588506 C13.260445,29.817983 13.9694656,29.228646 14.2279695,28.0811094 L15.3576671,21.4190399 L21.0424817,14.7991354 C21.3350419,14.4410573 21.5166757,14.0719514 21.5912753,13.6804656" id="Fill-9" fill="#3167FC"></path>
            <path d="M34.3969146,11.8557268 C33.2231059,11.9108656 32.497868,12.5618283 32.2422832,13.8018035 L31.349034,19.0818342 L25.121264,19.0818342 L26.0164593,13.8018035 C26.1714967,12.5666935 25.6720037,11.9196229 24.5231697,11.8557268 C23.3636323,11.9108656 22.6513682,12.5618283 22.3931887,13.8018035 L19.9923786,27.9637286 C19.8285838,29.1696475 20.3219143,29.8014737 21.4697753,29.858883 C22.6500708,29.8014737 23.3636323,29.1696475 23.6169466,27.9637286 L24.5351705,22.5374178 L30.7626162,22.5374178 L29.8424462,27.9637286 C29.6773541,29.1787292 30.1752254,29.8102311 31.3418984,29.858883 C32.5114905,29.8014737 33.2195381,29.1696475 33.4631221,27.9637286 L35.8652295,13.8018035 C36.0293486,12.5618283 35.5415321,11.9108656 34.3969146,11.8557268" id="Fill-11" fill="#3167FC"></path>
            <path d="M34.3969146,11.8557268 C33.2231059,11.9108656 32.497868,12.5618283 32.2422832,13.8018035 L31.349034,19.0818342 L25.121264,19.0818342 L26.0164593,13.8018035 C26.1714967,12.5666935 25.6720037,11.9196229 24.5231697,11.8557268 C23.3636323,11.9108656 22.6513682,12.5618283 22.3931887,13.8018035 L19.9923786,27.9637286 C19.8285838,29.1696475 20.3219143,29.8014737 21.4697753,29.858883 C22.6500708,29.8014737 23.3636323,29.1696475 23.6169466,27.9637286 L24.5351705,22.5374178 L30.7626162,22.5374178 L29.8424462,27.9637286 C29.6773541,29.1787292 30.1752254,29.8102311 31.3418984,29.858883 C32.5114905,29.8014737 33.2195381,29.1696475 33.4631221,27.9637286 L35.8652295,13.8018035 C36.0293486,12.5618283 35.5415321,11.9108656 34.3969146,11.8557268" id="Fill-11备份" fill="#3167FC"></path>
            <g id="编组">
                <mask id="mask-2" fill="white">
                    <use xlink:href="#path-1"></use>
                </mask>
                <g id="Clip-14"></g>
                <path d="M39.053552,19.9993769 C38.9984131,28.8644053 32.0765424,36.2971212 23.0953981,36.8592131 C22.0435436,36.9250553 21.007582,36.8948911 19.9982169,36.7735857 C11.9959492,35.8196837 5.56481412,29.2675676 5.04164381,20.9367372 C5.02672389,20.6250406 5.01569612,20.3107492 5.00953354,19.9993769 C4.93558263,11.3435518 11.4085583,3.99678761 19.9982169,2.97055646 C20.3189952,2.93325665 20.6407465,2.90536289 20.965417,2.88330735 C30.3461558,2.29332174 38.4301587,9.42439574 39.0211173,18.8064319 C39.0454433,19.2082967 39.053552,19.6062694 39.053552,19.9993769 M40,19.9993769 C39.9973992,19.5838895 39.9834523,19.1671048 39.9549098,18.751293 C39.2942168,8.14744503 30.478489,-0.00758969942 19.9982169,-0.000134852417 C19.5814321,0.0037624151 19.166269,0.0173849525 18.7442947,0.0420352583 C8.14369019,0.705971785 -0.00907411173,9.51618569 0,19.9993769 C0,20.4151887 0.0139544634,20.82873 0.040550846,21.2474608 C0.707406488,31.8513088 9.51794474,40.0066679 19.9982169,39.9985653 C20.4088391,39.9985653 20.8301647,39.9807202 21.2492199,39.9576916 C31.8527435,39.2914847 40.0081026,30.4790004 40,19.9993769" id="Fill-13" fill="#3167FC" mask="url(#mask-2)"></path>
            </g>
        </g>
    </g>
</svg>